<svg xmlns="http://www.w3.org/2000/svg" width="35.873" height="36" viewBox="0 0 35.873 36"><ellipse cx="17.936" cy="18" rx="17.936" ry="18" transform="translate(0 0)" fill="#868e96"/><g transform="translate(8.221 8.25)"><path d="M14.947,0a4.448,4.448,0,0,0-3.17,1.318l-1.495,1.5A4.5,4.5,0,0,0,9.8,8.6L8.574,9.835a4.462,4.462,0,0,0-5.766.483l-1.495,1.5a4.492,4.492,0,1,0,6.341,6.363l1.495-1.5A4.479,4.479,0,0,0,10.463,13.5a4.554,4.554,0,0,0-.165-1.2L8.953,13.645a2.985,2.985,0,0,1-.861,1.976L6.6,17.121A2.994,2.994,0,0,1,2.37,12.879l1.495-1.5a2.962,2.962,0,0,1,3.624-.456L5.45,12.97A.749.749,0,1,0,6.507,14.03l7.473-7.5A.749.749,0,1,0,12.924,5.47L10.885,7.516a3,3,0,0,1,.454-3.637l1.495-1.5a2.988,2.988,0,0,1,4.227,0,3.01,3.01,0,0,1,0,4.242l-1.495,1.5a2.962,2.962,0,0,1-1.969.864l-1.344,1.349a4.508,4.508,0,0,0,1.2.166,4.448,4.448,0,0,0,3.17-1.318l1.495-1.5a4.51,4.51,0,0,0,0-6.363A4.448,4.448,0,0,0,14.947,0Z" fill="#eff3f3"/></g></svg>