<svg xmlns="http://www.w3.org/2000/svg" width="35.873" height="36" viewBox="0 0 35.873 36"><ellipse cx="17.936" cy="18" rx="17.936" ry="18" transform="translate(0 0)" fill="#1da1f2"/><g transform="translate(8.221 9.75)"><path d="M19.432,1.876a7.936,7.936,0,0,1-2.29.63A4,4,0,0,0,18.894.292a7.976,7.976,0,0,1-2.532.971A3.985,3.985,0,0,0,9.467,4a4.059,4.059,0,0,0,.1.911A11.3,11.3,0,0,1,1.353.731,4.017,4.017,0,0,0,2.587,6.073a3.968,3.968,0,0,1-1.806-.5v.05a4,4,0,0,0,3.2,3.923,3.975,3.975,0,0,1-1.051.14,4.045,4.045,0,0,1-.75-.071A3.993,3.993,0,0,0,5.9,12.393,7.978,7.978,0,0,1,.951,14.106,7.982,7.982,0,0,1,0,14.05a11.257,11.257,0,0,0,6.111,1.8A11.286,11.286,0,0,0,17.453,4.464q0-.26-.011-.518A8.128,8.128,0,0,0,19.432,1.876Z" transform="translate(0.747 0.327)" fill="#eff3f3"/></g></svg>